<svg xmlns="http://www.w3.org/2000/svg" xmlns:xlink="http://www.w3.org/1999/xlink" width="2000" zoomAndPan="magnify" viewBox="0 0 1500 1499.999933" height="2000" preserveAspectRatio="xMidYMid meet" version="1.0"><defs><g/></defs><path stroke-linecap="round" transform="matrix(0, 0.75, -0.75, 0, 576.867464, 562.130788)" fill="none" stroke-linejoin="miter" d="M 1.997492 2.000368 L 498.992326 2.000368 " stroke="#ffffff" stroke-width="4" stroke-opacity="1" stroke-miterlimit="4"/><g fill="#ffffff" fill-opacity="1"><g transform="translate(656.945473, 894.106319)"><g><path d="M 57.015625 3.25 C 46.203125 3.25 37.316406 1.703125 30.359375 -1.390625 C 23.410156 -4.484375 18.082031 -8.578125 14.375 -13.671875 C 10.664062 -18.773438 8.304688 -24.492188 7.296875 -30.828125 C 6.296875 -37.160156 6.335938 -43.414062 7.421875 -49.59375 L 39.859375 -53.3125 C 39.398438 -48.050781 39.59375 -43.140625 40.4375 -38.578125 C 41.289062 -34.023438 43.066406 -30.316406 45.765625 -27.453125 C 48.472656 -24.597656 52.300781 -23.171875 57.25 -23.171875 C 59.414062 -23.171875 61.539062 -23.597656 63.625 -24.453125 C 65.707031 -25.304688 67.441406 -26.8125 68.828125 -28.96875 C 70.222656 -31.132812 70.921875 -34.148438 70.921875 -38.015625 C 70.921875 -42.953125 69.757812 -47.117188 67.4375 -50.515625 C 65.125 -53.921875 61.878906 -57.09375 57.703125 -60.03125 C 53.535156 -62.96875 48.59375 -65.984375 42.875 -69.078125 C 38.238281 -71.859375 33.71875 -74.710938 29.3125 -77.640625 C 24.914062 -80.578125 21.015625 -83.859375 17.609375 -87.484375 C 14.210938 -91.117188 11.507812 -95.253906 9.5 -99.890625 C 7.488281 -104.523438 6.484375 -109.859375 6.484375 -115.890625 C 6.484375 -123.617188 8.257812 -130.457031 11.8125 -136.40625 C 15.375 -142.351562 20.742188 -147.023438 27.921875 -150.421875 C 35.109375 -153.828125 44.113281 -155.53125 54.9375 -155.53125 C 67.445312 -155.53125 77.367188 -153.363281 84.703125 -149.03125 C 92.046875 -144.707031 97.265625 -138.914062 100.359375 -131.65625 C 103.453125 -124.394531 104.84375 -116.359375 104.53125 -107.546875 L 72.3125 -103.375 C 72.78125 -106.769531 72.664062 -109.972656 71.96875 -112.984375 C 71.269531 -116.003906 70.148438 -118.710938 68.609375 -121.109375 C 67.066406 -123.503906 65.097656 -125.359375 62.703125 -126.671875 C 60.304688 -127.984375 57.5625 -128.640625 54.46875 -128.640625 C 51.84375 -128.640625 49.5625 -128.097656 47.625 -127.015625 C 45.695312 -125.929688 44.191406 -124.5 43.109375 -122.71875 C 42.023438 -120.945312 41.484375 -118.828125 41.484375 -116.359375 C 41.484375 -112.648438 42.601562 -109.363281 44.84375 -106.5 C 47.082031 -103.644531 49.941406 -101.171875 53.421875 -99.078125 C 56.898438 -96.992188 60.492188 -94.945312 64.203125 -92.9375 C 69.304688 -90.3125 74.328125 -87.375 79.265625 -84.125 C 84.210938 -80.882812 88.734375 -77.140625 92.828125 -72.890625 C 96.921875 -68.640625 100.164062 -63.769531 102.5625 -58.28125 C 104.957031 -52.800781 106.15625 -46.429688 106.15625 -39.171875 C 106.15625 -31.753906 104.609375 -24.800781 101.515625 -18.3125 C 98.429688 -11.820312 93.296875 -6.601562 86.109375 -2.65625 C 78.921875 1.28125 69.222656 3.25 57.015625 3.25 Z M 57.015625 3.25 "/></g></g></g><g fill="#ffffff" fill-opacity="1"><g transform="translate(761.941549, 894.106319)"><g><path d="M 32.453125 0 L 32.453125 -152.96875 L 68.140625 -152.96875 L 68.140625 0 Z M 1.859375 -124 L 1.859375 -152.96875 L 98.5 -152.96875 L 98.5 -124 Z M 1.859375 -124 "/></g></g></g><g fill="#ffffff" fill-opacity="1"><g transform="translate(855.348699, 894.106319)"><g><path d="M 61.890625 3.25 C 52.304688 3.25 44.382812 1.78125 38.125 -1.15625 C 31.863281 -4.09375 26.914062 -7.835938 23.28125 -12.390625 C 19.65625 -16.953125 16.953125 -21.78125 15.171875 -26.875 C 13.398438 -31.976562 12.28125 -36.734375 11.8125 -41.140625 C 11.351562 -45.546875 11.125 -48.984375 11.125 -51.453125 L 11.125 -152.96875 L 47.046875 -152.96875 L 47.046875 -51.21875 C 47.046875 -45.195312 47.585938 -40.523438 48.671875 -37.203125 C 49.753906 -33.878906 51.375 -31.5625 53.53125 -30.25 C 55.695312 -28.9375 58.171875 -28.28125 60.953125 -28.28125 C 64.046875 -28.28125 66.632812 -28.9375 68.71875 -30.25 C 70.8125 -31.5625 72.4375 -33.835938 73.59375 -37.078125 C 74.75 -40.328125 75.328125 -45.039062 75.328125 -51.21875 L 75.328125 -152.96875 L 111.25 -152.96875 L 111.25 -51.453125 C 111.25 -42.023438 110.128906 -33.875 107.890625 -27 C 105.648438 -20.125 102.363281 -14.445312 98.03125 -9.96875 C 93.707031 -5.488281 88.492188 -2.164062 82.390625 0 C 76.296875 2.164062 69.460938 3.25 61.890625 3.25 Z M 61.890625 3.25 "/></g></g></g><g fill="#ffffff" fill-opacity="1"><g transform="translate(970.543086, 894.106319)"><g><path d="M 29.203125 0 L 29.203125 -28.28125 L 54.9375 -28.28125 C 57.71875 -28.28125 60.457031 -28.894531 63.15625 -30.125 C 65.863281 -31.363281 68.296875 -33.679688 70.453125 -37.078125 C 72.617188 -40.484375 74.320312 -45.351562 75.5625 -51.6875 C 76.800781 -58.019531 77.421875 -66.285156 77.421875 -76.484375 C 77.421875 -88.378906 76.609375 -97.570312 74.984375 -104.0625 C 73.359375 -110.550781 71.234375 -115.265625 68.609375 -118.203125 C 65.984375 -121.140625 63.316406 -122.957031 60.609375 -123.65625 C 57.898438 -124.351562 55.46875 -124.703125 53.3125 -124.703125 L 29.203125 -124.703125 L 29.203125 -152.96875 L 53.546875 -152.96875 C 64.828125 -152.96875 74.984375 -149.992188 84.015625 -144.046875 C 93.054688 -138.097656 100.164062 -129.40625 105.34375 -117.96875 C 110.519531 -106.539062 113.109375 -92.5625 113.109375 -76.03125 C 113.109375 -62.425781 111.71875 -51.066406 108.9375 -41.953125 C 106.15625 -32.835938 102.484375 -25.5 97.921875 -19.9375 C 93.367188 -14.375 88.503906 -10.160156 83.328125 -7.296875 C 78.148438 -4.441406 73.164062 -2.507812 68.375 -1.5 C 63.582031 -0.5 59.566406 0 56.328125 0 Z M 11.59375 0 L 11.59375 -152.96875 L 47.28125 -152.96875 L 47.28125 0 Z M 11.59375 0 "/></g></g></g><g fill="#ffffff" fill-opacity="1"><g transform="translate(1085.042176, 894.106319)"><g><path d="M 11.59375 0 L 11.59375 -152.96875 L 47.984375 -152.96875 L 47.984375 0 Z M 11.59375 0 "/></g></g></g><g fill="#ffffff" fill-opacity="1"><g transform="translate(1137.656062, 894.106319)"><g><path d="M 60.5 3.25 C 51.375 3.25 43.53125 1.585938 36.96875 -1.734375 C 30.40625 -5.054688 25 -10 20.75 -16.5625 C 16.5 -23.132812 13.367188 -31.40625 11.359375 -41.375 C 9.347656 -51.34375 8.34375 -62.96875 8.34375 -76.25 C 8.34375 -94.789062 10.273438 -109.929688 14.140625 -121.671875 C 18.003906 -133.421875 23.835938 -142.078125 31.640625 -147.640625 C 39.441406 -153.203125 49.140625 -155.984375 60.734375 -155.984375 C 69.691406 -155.984375 77.492188 -154.4375 84.140625 -151.34375 C 90.785156 -148.257812 96.347656 -143.507812 100.828125 -137.09375 C 105.304688 -130.6875 108.625 -122.5 110.78125 -112.53125 C 112.945312 -102.5625 114.03125 -90.78125 114.03125 -77.1875 C 114.03125 -63.582031 112.945312 -51.71875 110.78125 -41.59375 C 108.625 -31.476562 105.34375 -23.097656 100.9375 -16.453125 C 96.53125 -9.804688 90.96875 -4.859375 84.25 -1.609375 C 77.53125 1.628906 69.613281 3.25 60.5 3.25 Z M 60.5 -24.109375 C 63.28125 -24.109375 65.710938 -25.226562 67.796875 -27.46875 C 69.878906 -29.707031 71.691406 -32.953125 73.234375 -37.203125 C 74.785156 -41.453125 75.945312 -46.703125 76.71875 -52.953125 C 77.488281 -59.210938 77.875 -66.285156 77.875 -74.171875 C 77.875 -85.910156 77.101562 -95.835938 75.5625 -103.953125 C 74.019531 -112.066406 71.929688 -118.207031 69.296875 -122.375 C 66.671875 -126.550781 63.582031 -128.640625 60.03125 -128.640625 C 58.019531 -128.640625 56.125 -127.789062 54.34375 -126.09375 C 52.570312 -124.394531 50.953125 -121.570312 49.484375 -117.625 C 48.015625 -113.6875 46.851562 -108.351562 46 -101.625 C 45.15625 -94.90625 44.734375 -86.445312 44.734375 -76.25 C 44.734375 -66.363281 45.15625 -58.054688 46 -51.328125 C 46.851562 -44.609375 48.015625 -39.238281 49.484375 -35.21875 C 50.953125 -31.207031 52.613281 -28.351562 54.46875 -26.65625 C 56.320312 -24.957031 58.332031 -24.109375 60.5 -24.109375 Z M 60.5 -24.109375 "/></g></g></g><g fill="#ffffff" fill-opacity="1"><g transform="translate(656.945473, 719.455574)"><g><path d="M 4.953125 0 L 29.375 -125.859375 L 48.25 -125.859375 L 72.65625 0 L 61.59375 0 L 40.234375 -115.5625 L 37.765625 -115.5625 L 16.203125 0 Z M 18.3125 -29.75 L 18.3125 -39.671875 L 59.5 -39.671875 L 59.5 -29.75 Z M 18.3125 -29.75 "/></g></g></g><g fill="#ffffff" fill-opacity="1"><g transform="translate(726.55031, 719.455574)"><g><path d="M 13.921875 0 L 13.921875 -125.859375 L 37.953125 -125.859375 C 42.785156 -125.859375 47.171875 -125.378906 51.109375 -124.421875 C 55.046875 -123.472656 58.476562 -122.046875 61.40625 -120.140625 C 64.332031 -118.234375 66.78125 -115.847656 68.75 -112.984375 C 70.71875 -110.128906 72.207031 -106.828125 73.21875 -103.078125 C 74.238281 -99.328125 74.75 -95.097656 74.75 -90.390625 C 74.75 -86.328125 74.335938 -82.484375 73.515625 -78.859375 C 72.691406 -75.234375 71.328125 -71.894531 69.421875 -68.84375 C 67.515625 -65.789062 64.875 -63.179688 61.5 -61.015625 C 58.132812 -58.859375 53.90625 -57.335938 48.8125 -56.453125 L 48.8125 -54.34375 C 52.632812 -54.09375 55.910156 -53.269531 58.640625 -51.875 C 61.367188 -50.476562 63.6875 -48.125 65.59375 -44.8125 C 67.507812 -41.507812 69.101562 -36.742188 70.375 -30.515625 L 76.859375 0 L 65.796875 0 L 59.3125 -31.078125 C 58.675781 -34.765625 57.753906 -38.039062 56.546875 -40.90625 C 55.335938 -43.769531 53.425781 -45.992188 50.8125 -47.578125 C 48.207031 -49.171875 44.425781 -49.96875 39.46875 -49.96875 L 24.59375 -49.96875 L 24.59375 0 Z M 24.59375 -59.875 L 33.5625 -59.875 C 35.726562 -59.875 38.144531 -60 40.8125 -60.25 C 43.476562 -60.507812 46.175781 -61.082031 48.90625 -61.96875 C 51.644531 -62.863281 54.125 -64.359375 56.34375 -66.453125 C 58.570312 -68.554688 60.382812 -71.382812 61.78125 -74.9375 C 63.1875 -78.5 63.890625 -83.015625 63.890625 -88.484375 C 63.890625 -93.828125 63.253906 -98.179688 61.984375 -101.546875 C 60.710938 -104.921875 59.085938 -107.5625 57.109375 -109.46875 C 55.140625 -111.375 52.914062 -112.769531 50.4375 -113.65625 C 47.957031 -114.550781 45.507812 -115.125 43.09375 -115.375 C 40.675781 -115.625 38.453125 -115.75 36.421875 -115.75 L 24.59375 -115.75 Z M 24.59375 -59.875 "/></g></g></g><g fill="#ffffff" fill-opacity="1"><g transform="translate(803.783103, 719.455574)"><g><path d="M 21.9375 0 L 21.9375 -9.921875 L 39.28125 -9.921875 C 44.363281 -9.921875 48.585938 -11.222656 51.953125 -13.828125 C 55.328125 -16.429688 58.03125 -20.148438 60.0625 -24.984375 C 62.101562 -29.816406 63.535156 -35.410156 64.359375 -41.765625 C 65.191406 -48.117188 65.609375 -55.046875 65.609375 -62.546875 C 65.609375 -69.921875 65.191406 -76.785156 64.359375 -83.140625 C 63.535156 -89.503906 62.070312 -95.164062 59.96875 -100.125 C 57.875 -105.082031 54.851562 -108.957031 50.90625 -111.75 C 46.96875 -114.550781 41.953125 -115.953125 35.859375 -115.953125 L 21.9375 -115.953125 L 21.9375 -125.859375 L 35.859375 -125.859375 C 45.003906 -125.859375 52.597656 -123.410156 58.640625 -118.515625 C 64.679688 -113.628906 69.160156 -106.445312 72.078125 -96.96875 C 75.003906 -87.5 76.46875 -76.023438 76.46875 -62.546875 C 76.46875 -52.503906 75.734375 -43.859375 74.265625 -36.609375 C 72.804688 -29.367188 70.804688 -23.363281 68.265625 -18.59375 C 65.722656 -13.820312 62.894531 -10.101562 59.78125 -7.4375 C 56.664062 -4.769531 53.457031 -2.863281 50.15625 -1.71875 C 46.851562 -0.570312 43.738281 0 40.8125 0 Z M 13.921875 0 L 13.921875 -125.859375 L 24.59375 -125.859375 L 24.59375 0 Z M 13.921875 0 "/></g></g></g><g fill="#ffffff" fill-opacity="1"><g transform="translate(882.350804, 719.455574)"><g><path d="M 13.921875 0 L 13.921875 -125.859375 L 24.59375 -125.859375 L 24.59375 0 Z M 15.453125 0 L 15.453125 -10.109375 L 62.546875 -10.109375 L 62.546875 0 Z M 15.453125 -59.5 L 15.453125 -69.609375 L 58.546875 -69.609375 L 58.546875 -59.5 Z M 15.453125 -115.75 L 15.453125 -125.859375 L 62.546875 -125.859375 L 62.546875 -115.75 Z M 15.453125 -115.75 "/></g></g></g><g fill="#ffffff" fill-opacity="1"><g transform="translate(942.420653, 719.455574)"><g><path d="M 13.921875 0 L 13.921875 -125.859375 L 32.03125 -125.859375 L 72.078125 -9.921875 L 73.234375 -9.921875 L 72.28125 -125.859375 L 82.953125 -125.859375 L 82.953125 0 L 65.03125 0 L 24.796875 -115.953125 L 23.84375 -115.953125 L 24.59375 0 Z M 13.921875 0 "/></g></g></g><g fill="#ffffff" fill-opacity="1"><g transform="translate(1031.476806, 719.455574)"><g><path d="M 44.25 2.28125 C 37.507812 2.28125 31.976562 0.503906 27.65625 -3.046875 C 23.332031 -6.609375 19.992188 -11.40625 17.640625 -17.4375 C 15.285156 -23.476562 13.628906 -30.441406 12.671875 -38.328125 C 11.722656 -46.210938 11.25 -54.414062 11.25 -62.9375 C 11.25 -76.539062 12.265625 -88.203125 14.296875 -97.921875 C 16.335938 -107.648438 19.738281 -115.117188 24.5 -120.328125 C 29.269531 -125.546875 35.785156 -128.15625 44.046875 -128.15625 C 50.535156 -128.15625 55.972656 -126.566406 60.359375 -123.390625 C 64.742188 -120.210938 68.207031 -115.695312 70.75 -109.84375 C 73.289062 -104 75.101562 -97.101562 76.1875 -89.15625 C 77.269531 -81.207031 77.8125 -72.398438 77.8125 -62.734375 C 77.8125 -53.710938 77.300781 -45.289062 76.28125 -37.46875 C 75.257812 -29.65625 73.476562 -22.757812 70.9375 -16.78125 C 68.394531 -10.800781 64.929688 -6.128906 60.546875 -2.765625 C 56.160156 0.597656 50.726562 2.28125 44.25 2.28125 Z M 44.046875 -8.015625 C 47.097656 -8.015625 49.957031 -8.898438 52.625 -10.671875 C 55.300781 -12.453125 57.71875 -15.441406 59.875 -19.640625 C 62.039062 -23.835938 63.726562 -29.554688 64.9375 -36.796875 C 66.144531 -44.046875 66.75 -53.078125 66.75 -63.890625 C 66.75 -76.472656 65.828125 -86.703125 63.984375 -94.578125 C 62.140625 -102.460938 59.53125 -108.3125 56.15625 -112.125 C 52.789062 -115.945312 48.753906 -117.859375 44.046875 -117.859375 C 41.128906 -117.859375 38.332031 -117 35.65625 -115.28125 C 32.988281 -113.5625 30.671875 -110.695312 28.703125 -106.6875 C 26.734375 -102.6875 25.175781 -97.222656 24.03125 -90.296875 C 22.882812 -83.367188 22.3125 -74.628906 22.3125 -64.078125 C 22.3125 -52.628906 22.945312 -43.28125 24.21875 -36.03125 C 25.488281 -28.789062 27.140625 -23.132812 29.171875 -19.0625 C 31.210938 -15 33.535156 -12.140625 36.140625 -10.484375 C 38.742188 -8.835938 41.378906 -8.015625 44.046875 -8.015625 Z M 44.046875 -8.015625 "/></g></g></g><g fill="#ffffff" fill-opacity="1"><g transform="translate(1112.523559, 719.455574)"><g/></g></g><path fill="#ff3301" d="M 514.300781 878.699219 L 434.792969 718.777344 C 411.382812 739.714844 390.78125 776.453125 391.929688 806.554688 L 415.984375 853.996094 C 416.851562 855.699219 418.324219 857.015625 420.113281 857.679688 L 504.851562 889.203125 C 511.304688 891.605469 517.367188 884.867188 514.300781 878.699219 Z M 371.617188 791.304688 C 371.410156 791.605469 371.222656 791.925781 371.054688 792.265625 L 340.871094 853.445312 C 340.011719 855.183594 338.523438 856.527344 336.707031 857.207031 L 250.40625 889.308594 C 243.988281 891.699219 237.9375 885.042969 240.917969 878.878906 L 369.019531 614.007812 C 371.769531 608.324219 379.851562 608.277344 382.664062 613.929688 L 432.074219 713.316406 C 404.980469 732.679688 383.765625 759.746094 371.617188 791.304688 " fill-opacity="1" fill-rule="nonzero"/></svg>