<svg xmlns="http://www.w3.org/2000/svg" width="1280" height="800" viewBox="0 0 1280 800" role="img" aria-label="Dinaya marketing dashboard screenshot">
  <rect width="1280" height="800" fill="#f8fafc"/>
  <rect x="40" y="40" width="240" height="720" rx="24" fill="#0f172a"/>
  <text x="72" y="92" fill="#ffffff" font-family="Inter, Arial, sans-serif" font-size="28" font-weight="700">Dinaya</text>
  <rect x="64" y="192" width="176" height="40" rx="10" fill="#2563eb"/>
  <text x="88" y="218" fill="#ffffff" font-family="Inter, Arial, sans-serif" font-size="16">Marketing</text>
  <text x="320" y="88" fill="#111827" font-family="Inter, Arial, sans-serif" font-size="32" font-weight="700">Marketing</text>
  <text x="320" y="122" fill="#64748b" font-family="Inter, Arial, sans-serif" font-size="16">Share your booking page across WhatsApp, Instagram, posters, and your website.</text>
  <rect x="320" y="160" width="360" height="220" rx="20" fill="#ffffff" stroke="#e5e7eb"/>
  <text x="348" y="200" fill="#111827" font-family="Inter, Arial, sans-serif" font-size="20" font-weight="700">Directory listing</text>
  <text x="348" y="232" fill="#64748b" font-family="Inter, Arial, sans-serif" font-size="14">Get found from dinaya.lk/discover.</text>
  <rect x="348" y="270" width="128" height="40" rx="20" fill="#dbeafe"/>
  <circle cx="456" cy="290" r="16" fill="#2563eb"/>
  <text x="348" y="340" fill="#2563eb" font-family="Inter, Arial, sans-serif" font-size="14" font-weight="600">Directory bookings are tagged automatically</text>
  <rect x="320" y="408" width="360" height="180" rx="20" fill="#ffffff" stroke="#e5e7eb"/>
  <text x="348" y="448" fill="#111827" font-family="Inter, Arial, sans-serif" font-size="20" font-weight="700">Referrals</text>
  <rect x="348" y="472" width="284" height="42" rx="10" fill="#eff6ff" stroke="#bfdbfe"/>
  <text x="368" y="498" fill="#2563eb" font-family="Inter, Arial, sans-serif" font-size="14">https://dinaya.lk/register?ref=salon</text>
  <text x="348" y="548" fill="#64748b" font-family="Inter, Arial, sans-serif" font-size="14">Refer another business and track signups.</text>
  <rect x="720" y="160" width="480" height="520" rx="24" fill="#ffffff" stroke="#e5e7eb"/>
  <text x="752" y="204" fill="#111827" font-family="Inter, Arial, sans-serif" font-size="20" font-weight="700">Share tools</text>
  <rect x="752" y="232" width="384" height="44" rx="10" fill="#f1f5f9"/>
  <text x="772" y="260" fill="#2563eb" font-family="Inter, Arial, sans-serif" font-size="14">https://salon.dinaya.lk</text>
  <rect x="752" y="304" width="120" height="38" rx="10" fill="#ffffff" stroke="#cbd5e1"/>
  <text x="782" y="328" fill="#334155" font-family="Inter, Arial, sans-serif" font-size="14">Open</text>
  <rect x="884" y="304" width="156" height="38" rx="10" fill="#ffffff" stroke="#cbd5e1"/>
  <text x="908" y="328" fill="#334155" font-family="Inter, Arial, sans-serif" font-size="14">WhatsApp share</text>
  <rect x="752" y="380" width="160" height="160" rx="16" fill="#f8fafc" stroke="#cbd5e1"/>
  <rect x="788" y="416" width="88" height="88" fill="#111827"/>
  <rect x="804" y="432" width="20" height="20" fill="#ffffff"/>
  <rect x="840" y="468" width="20" height="20" fill="#ffffff"/>
  <text x="944" y="428" fill="#111827" font-family="Inter, Arial, sans-serif" font-size="18" font-weight="700">Ready to print</text>
  <text x="944" y="462" fill="#64748b" font-family="Inter, Arial, sans-serif" font-size="14">Use QR codes on counters, receipts, and Instagram stories.</text>
</svg>
